<?xml version="1.0" encoding="iso-8859-1"?>
<!-- Generator: Adobe Illustrator 19.0.0, SVG Export Plug-In . SVG Version: 6.00 Build 0)  -->
<svg version="1.1" id="Layer_1" xmlns="http://www.w3.org/2000/svg" xmlns:xlink="http://www.w3.org/1999/xlink" x="0px" y="0px"
	 viewBox="0 0 400.773 400.773" style="enable-background:new 0 0 400.773 400.773;" xml:space="preserve">
<g transform="translate(0 -1020.36)">
	<g shape-rendering="auto" image-rendering="auto" color-rendering="auto" color-interpolation="sRGB">
		<path style="fill:#484666;" d="M104.045,1032.818C46.707,1032.818,0,1079.369,0,1136.658c0.04,26.395,13.906,48.49,25.627,67.969
			c22.614,37.58,64.648,85.549,101.211,124.607c36.563,39.057,67.552,68.912,67.552,68.912c3.338,3.219,8.704,2.941,11.692-0.607
			c0,0,25.348-29.871,54.325-63.721c2.621-3.088,2.52-7.65-0.236-10.621c-2.699-2.941-4.128-6.748-4.133-10.738
			c-0.003-5.279,2.609-10.117,6.968-13.098c3.114-2.15,4.296-6.188,2.834-9.678c-1.2-2.893-1.883-6.068-1.89-9.203
			c0-13.33,10.634-23.953,23.974-23.953c2.383,0.014,4.816,0.367,7.086,1.057c2.84,0.881,5.931,0.16,8.031-1.994
			c3.329-3.354,7.534-5.654,12.164-6.607c4.877-0.977,7.698-6.104,5.905-10.738c-0.712-1.836-1.058-3.697-1.063-5.66
			c0-8.916,7.021-15.93,15.943-15.93c4.278,0.004,8.338,1.674,11.337,4.719c3.235,3.311,8.596,3.201,11.692-0.24
			c2.082-2.297,4.807-5.469,6.495-7.316c19.337-21.111,34.452-47.049,34.485-77.172c0-54.986-42.808-99.578-96.953-103.236
			c-3.656-0.24-3.578-0.416-6.974-0.607c-2.33-0.16-0.078,0-0.118,0c-52.276,0-87.736,42.43-95.896,52.627
			c-8.097-10.127-43.679-52.627-96.014-52.627L104.045,1032.818z"/>
		<path style="fill:#D87070;" d="M104.045,1048.748c47.366,0,89.512,53.986,89.512,53.986c3.208,4.109,9.429,4.109,12.637,0
			c0,0,42.324-53.902,89.644-53.986c0.04,0,0.078,0,0.118,0c48.677,0,87.983,39.275,87.983,87.91
			c-0.027,24.76-12.485,46.939-30.233,66.316c-0.993,1.088-2.158,2.355-3.307,3.654c-4.657-2.545-9.006-6.012-14.408-6.018
			c-17.583,0-32.005,14.412-32.005,31.979c0.004,1.602,0.584,3.143,0.827,4.721c-2.984,1.297-5.915,2.621-8.503,4.604
			c-2.731-0.607-5.469-1.279-8.267-1.297c-0.04,0-0.078,0-0.118,0c-22,0-39.917,17.902-39.917,39.885
			c0.008,4.145,1.212,8.223,2.48,12.154c-5.187,5.801-10.515,11.875-10.511,19.824c0.008,5.244,3.131,9.596,5.551,14.16
			c-24.159,28.246-41.65,48.863-45.94,53.926c-4.845-4.695-28.051-27.047-61.057-62.305
			c-36.259-38.734-78.032-86.715-99.203-121.895c-11.759-19.541-23.234-39.035-23.265-59.709c0-48.633,39.307-87.908,87.983-87.908
			L104.045,1048.748z"/>
		<path style="fill:#484666;" d="M332.329,1350.004c-3.129,0.367-5.787,1.057-5.787,1.057c-10.315,2.832-6.063,18.291,4.252,15.459
			c0,0,1.508-0.688,3.244-0.287c2.165,0.48,2.334,1.119,2.779,4.035c0.292,3.379,0.827,6.018,0.827,6.018
			c-0.12,11.523,17.584,10.352,15.943-1.057c0,0-0.229-3.787-1.181-8.26c-0.952-4.477-1.572-10.154-7.795-14.633
			c-5.329-3.836-9.153-2.713-12.282-2.361V1350.004z"/>
	</g>
	<g>
		<path style="fill:#484666;" d="M279.988,1392.439c0,4.414-3.582,7.992-7.999,7.992s-7.999-3.578-7.999-7.992
			c0-4.414,3.582-7.992,7.999-7.992S279.988,1388.025,279.988,1392.439z"/>
		<path style="fill:#484666;" d="M399.976,1360.473c0,4.414-3.582,7.992-7.999,7.992s-7.999-3.578-7.999-7.992
			c0-4.414,3.582-7.992,7.999-7.992S399.976,1356.059,399.976,1360.473z"/>
	</g>
	<g shape-rendering="auto" image-rendering="auto" color-rendering="auto" color-interpolation="sRGB">
		<path style="fill:#BD5858;" d="M104.052,1048.752c-1.526,0-3.024,0.16-4.531,0.225c46.02,2.375,86.273,53.762,86.273,53.762
			c2.527,3.236,6.866,3.828,10.186,1.969c-0.895-0.496-1.756-1.104-2.437-1.969c0,0-42.125-53.98-89.491-53.98V1048.752z
			 M295.846,1048.752c-1.049,0.002-2.081,0.16-3.125,0.225c46.545,2.365,83.429,40.596,83.429,87.699
			c-0.027,24.76-12.468,46.936-30.216,66.313c-0.196,0.225-0.448,0.496-0.656,0.721c1.706,0.977,3.403,1.996,5.124,2.936
			c1.149-1.297,2.319-2.566,3.312-3.654c17.748-19.377,30.189-41.553,30.216-66.313c0-48.635-39.315-87.918-87.991-87.918
			L295.846,1048.752z M328.218,1200.611c-17.583,0-31.997,14.402-31.997,31.969c0.004,1.6,0.57,3.137,0.812,4.713
			c-2.367,1.023-4.594,2.275-6.749,3.652c2.018,0.24,4.041,0.527,6.031,0.977c2.588-1.98,5.515-3.322,8.499-4.621
			c-0.243-1.584-0.84-3.113-0.844-4.713c0-15.969,11.966-29.203,27.341-31.502c-1.005-0.24-2.016-0.465-3.093-0.465
			L328.218,1200.611z M280.16,1240.605c-22,0-39.934,17.918-39.934,39.898c0.008,4.146,1.201,8.217,2.469,12.146
			c-5.187,5.801-10.503,11.877-10.499,19.826c0.008,5.244,3.142,9.609,5.562,14.172c-22.3,26.074-36.603,42.928-42.402,49.766
			c0.91,0.881,3.707,3.658,4.218,4.152c4.29-5.061,21.805-25.672,45.964-53.918c-2.42-4.563-5.554-8.93-5.562-14.172
			c-0.004-7.949,5.312-14.025,10.499-19.826c-1.268-3.93-2.46-8-2.469-12.146c0-20.377,15.441-37.078,35.215-39.432
			c-0.99-0.16-1.966-0.465-2.968-0.465L280.16,1240.605z"/>
		<g>
			<path style="fill:#484666;" d="M396.396,1392.889c1.911-2.502,3.266-4.891,3.266-4.891c5.14-9.381-8.924-17.078-14.064-7.697
				c0,0-0.552,1.553-2.049,2.529c-1.852,1.217-2.428,0.896-4.832-0.816c-2.628-2.145-4.902-3.588-4.902-3.588
				c-8.168-8.131-19.668,5.432-10.331,12.189c0,0,2.877,2.473,6.758,4.895c3.884,2.424,8.387,5.938,15.935,4.58
				c6.463-1.168,8.315-4.689,10.24-7.182L396.396,1392.889z"/>
			<path style="fill:#484666;" d="M312.806,1372.266c-2.527-1.881-4.93-3.207-4.93-3.207c-9.44-5.031-16.973,9.123-7.532,14.154
				c0,0,1.569,0.545,2.555,2.02c1.244,1.836,0.927,2.418-0.753,4.842c-2.11,2.656-3.534,4.941-3.534,4.941
				c-8.004,8.289,5.664,19.604,12.31,10.186c0,0,2.436-2.908,4.817-6.811c2.384-3.906,5.835-8.459,4.391-15.988
				c-1.237-6.447-4.787-8.26-7.302-10.154L312.806,1372.266z"/>
		</g>
	</g>
</g>
<g>
</g>
<g>
</g>
<g>
</g>
<g>
</g>
<g>
</g>
<g>
</g>
<g>
</g>
<g>
</g>
<g>
</g>
<g>
</g>
<g>
</g>
<g>
</g>
<g>
</g>
<g>
</g>
<g>
</g>
</svg>
