<svg xmlns="http://www.w3.org/2000/svg" viewBox="0 0 350.02 357.27" width="350.02" height="357.27" style="background-color: transparent;"><defs><style>@import url('https://fonts.googleapis.com/css2?family=Caveat+Brush&amp;family=Source+Code+Pro&amp;family=Source+Sans+Pro&amp;family=Crimson+Pro&amp;display=block');</style></defs><g id="3a816ed9-8a1c-40ba-373b-a8618f16ecc1_svg" class="tl-centered-g" transform="translate(46.54, 83.94) rotate(0.00, 65.50, 127.83)"><defs><mask id="3a816ed9-8a1c-40ba-373b-a8618f16ecc1_clip"><rect x="-100" y="-100" width="331.01" height="455.66" fill="white"/><rect x="65.50" y="127.83" width="0" height="0" rx="4" ry="4" fill="black" opacity="1"/></mask></defs><g pointer-events="none" opacity="1" mask=""><path d="M 1.32,-0.68 Q 1.32,-0.68 17.63,31.31 33.95,63.30 50.27,95.28 66.60,127.27 82.94,159.24 99.28,191.22 115.63,223.19 131.98,255.16 132.04,255.33 132.09,255.50 132.09,255.68 132.08,255.86 132.03,256.02 131.97,256.19 131.86,256.33 131.75,256.47 131.60,256.57 131.45,256.67 131.28,256.71 131.11,256.76 130.93,256.74 130.75,256.73 130.59,256.66 130.43,256.60 130.29,256.48 130.16,256.36 130.07,256.21 129.98,256.06 129.94,255.88 129.91,255.71 129.93,255.53 129.95,255.36 130.03,255.20 130.11,255.04 130.23,254.91 130.35,254.78 130.51,254.70 130.67,254.62 130.84,254.59 131.02,254.57 131.20,254.60 131.37,254.63 131.53,254.72 131.68,254.80 131.80,254.93 131.92,255.06 131.99,255.22 132.07,255.39 132.08,255.56 132.10,255.74 132.06,255.91 132.02,256.09 131.92,256.24 131.83,256.39 131.69,256.50 131.56,256.61 131.39,256.68 131.23,256.74 131.05,256.75 130.87,256.75 130.70,256.70 130.53,256.65 130.38,256.55 130.24,256.45 130.13,256.31 130.03,256.16 130.03,256.17 130.03,256.17 113.63,224.22 97.22,192.27 80.81,160.33 64.40,128.39 47.97,96.46 31.55,64.53 15.11,32.60 -1.32,0.68 -1.39,0.51 -1.45,0.34 -1.47,0.16 -1.49,-0.01 -1.46,-0.19 -1.44,-0.37 -1.38,-0.53 -1.31,-0.70 -1.21,-0.85 -1.10,-1.00 -0.97,-1.11 -0.83,-1.23 -0.67,-1.31 -0.51,-1.40 -0.34,-1.44 -0.16,-1.48 0.01,-1.48 0.19,-1.47 0.36,-1.43 0.54,-1.39 0.70,-1.30 0.85,-1.21 0.99,-1.09 1.12,-0.97 1.22,-0.82 Z" fill="#c6cbd1" stroke="#c6cbd1" stroke-width="3.33" stroke-dasharray="none" stroke-dashoffset="none" stroke-linecap="round" stroke-linejoin="round" pointer-events="stroke"/></g></g><g id="cb54c310-0083-4ae5-2aa1-3b5a8a694ea5_svg" class="tl-centered-g" transform="translate(40.62, 22.55) rotate(0.00, 47.42, 119.25)"><defs><mask id="cb54c310-0083-4ae5-2aa1-3b5a8a694ea5_clip"><rect x="-100" y="-100" width="294.84" height="438.5" fill="white"/><rect x="47.42" y="119.25" width="0" height="0" rx="4" ry="4" fill="black" opacity="1"/></mask></defs><g pointer-events="none" opacity="1" mask=""><path d="M 95.65,0.32 Q 95.65,0.32 83.76,30.12 71.87,59.92 59.98,89.72 48.10,119.52 36.23,149.32 24.35,179.13 12.48,208.93 0.61,238.74 0.56,238.83 0.50,238.92 0.42,238.99 0.34,239.06 0.24,239.10 0.14,239.14 0.03,239.15 -0.07,239.15 -0.17,239.13 -0.27,239.10 -0.36,239.04 -0.45,238.98 -0.52,238.89 -0.58,238.81 -0.61,238.70 -0.65,238.60 -0.65,238.50 -0.65,238.39 -0.62,238.29 -0.58,238.18 -0.52,238.10 -0.45,238.01 -0.36,237.95 -0.27,237.89 -0.17,237.86 -0.07,237.84 0.03,237.84 0.14,237.85 0.24,237.89 0.34,237.93 0.42,238.00 0.50,238.07 0.56,238.16 0.61,238.25 0.63,238.35 0.66,238.46 0.65,238.57 0.63,238.67 0.59,238.77 0.54,238.87 0.47,238.94 0.40,239.02 0.30,239.07 0.21,239.12 0.10,239.14 0.00,239.16 -0.10,239.14 -0.21,239.12 -0.30,239.07 -0.40,239.02 -0.47,238.95 -0.54,238.87 -0.59,238.77 -0.63,238.67 -0.65,238.57 -0.66,238.46 -0.63,238.35 -0.61,238.25 -0.61,238.25 -0.61,238.25 11.22,208.43 23.06,178.61 34.89,148.79 46.73,118.97 58.56,89.15 70.38,59.32 82.20,29.50 94.02,-0.32 94.07,-0.41 94.12,-0.51 94.19,-0.58 94.26,-0.66 94.35,-0.72 94.44,-0.78 94.54,-0.82 94.64,-0.85 94.74,-0.86 94.85,-0.87 94.95,-0.86 95.06,-0.84 95.16,-0.81 95.26,-0.77 95.34,-0.70 95.43,-0.64 95.50,-0.56 95.57,-0.48 95.61,-0.39 95.66,-0.29 95.69,-0.19 95.71,-0.09 95.71,0.01 95.71,0.11 95.68,0.22 Z" fill="#c6cbd1" stroke="#c6cbd1" stroke-width="2.11" stroke-dasharray="none" stroke-dashoffset="none" stroke-linecap="round" stroke-linejoin="round" pointer-events="stroke"/></g></g><g id="827bf42f-89d9-4a18-2860-713001e25b6f_svg" class="tl-centered-g" transform="translate(135.09, 22.11) rotate(0.00, 22.14, 75.19)"><defs><mask id="827bf42f-89d9-4a18-2860-713001e25b6f_clip"><rect x="-100" y="-100" width="244.27" height="350.38" fill="white"/><rect x="22.13" y="75.19" width="0" height="0" rx="4" ry="4" fill="black" opacity="1"/></mask></defs><g pointer-events="none" opacity="1" mask=""><path d="M 0.83,-0.24 Q 0.83,-0.24 6.33,18.56 11.83,37.37 17.33,56.17 22.84,74.98 28.35,93.78 33.86,112.58 39.38,131.39 44.90,150.19 44.91,150.29 44.92,150.40 44.90,150.50 44.88,150.61 44.83,150.70 44.77,150.79 44.69,150.86 44.61,150.93 44.51,150.97 44.42,151.02 44.31,151.02 44.20,151.03 44.10,151.00 44.00,150.98 43.91,150.92 43.82,150.86 43.75,150.78 43.69,150.69 43.65,150.59 43.62,150.49 43.62,150.38 43.61,150.28 43.65,150.18 43.68,150.08 43.74,149.99 43.81,149.90 43.89,149.84 43.98,149.78 44.08,149.75 44.18,149.72 44.29,149.73 44.40,149.73 44.50,149.77 44.60,149.81 44.68,149.87 44.76,149.94 44.82,150.03 44.87,150.12 44.90,150.23 44.92,150.33 44.91,150.44 44.90,150.54 44.86,150.64 44.82,150.74 44.74,150.81 44.67,150.89 44.58,150.94 44.48,151.00 44.38,151.01 44.28,151.03 44.17,151.02 44.06,151.00 43.97,150.95 43.87,150.90 43.80,150.83 43.73,150.75 43.68,150.66 43.63,150.56 43.63,150.56 43.63,150.56 38.08,131.77 32.53,112.98 26.98,94.18 21.42,75.39 15.86,56.60 10.30,37.81 4.73,19.03 -0.83,0.24 -0.85,0.14 -0.87,0.03 -0.86,-0.06 -0.85,-0.17 -0.82,-0.27 -0.79,-0.37 -0.73,-0.46 -0.68,-0.55 -0.60,-0.62 -0.52,-0.69 -0.43,-0.75 -0.34,-0.80 -0.24,-0.83 -0.14,-0.86 -0.03,-0.86 0.06,-0.87 0.17,-0.85 0.27,-0.83 0.36,-0.78 0.46,-0.74 0.54,-0.67 0.62,-0.60 0.69,-0.52 0.75,-0.44 0.79,-0.34 Z" fill="#c6cbd1" stroke="#c6cbd1" stroke-width="2.11" stroke-dasharray="none" stroke-dashoffset="none" stroke-linecap="round" stroke-linejoin="round" pointer-events="stroke"/></g></g><g id="1ab7f7a8-a4ca-4cf5-1bb5-0150d225d679_svg" class="tl-centered-g" transform="translate(180.89, 28.98) rotate(0.00, 24.43, 71.37)"><defs><mask id="1ab7f7a8-a4ca-4cf5-1bb5-0150d225d679_clip"><rect x="-100" y="-100" width="248.85" height="342.74" fill="white"/><rect x="24.42" y="71.37" width="0" height="0" rx="4" ry="4" fill="black" opacity="1"/></mask></defs><g pointer-events="none" opacity="1" mask=""><path d="M -0.92,142.42 Q -0.92,142.42 5.21,124.59 11.34,106.75 17.47,88.92 23.60,71.09 29.73,53.25 35.85,35.41 41.97,17.57 48.09,-0.25 48.15,-0.37 48.21,-0.48 48.30,-0.57 48.40,-0.66 48.52,-0.71 48.63,-0.77 48.76,-0.78 48.89,-0.80 49.02,-0.77 49.15,-0.74 49.26,-0.67 49.37,-0.60 49.45,-0.50 49.53,-0.41 49.58,-0.28 49.63,-0.16 49.64,-0.03 49.64,0.09 49.61,0.21 49.57,0.34 49.50,0.44 49.42,0.55 49.32,0.63 49.22,0.71 49.09,0.75 48.97,0.79 48.84,0.79 48.71,0.79 48.59,0.74 48.47,0.70 48.36,0.62 48.26,0.54 48.19,0.44 48.12,0.33 48.08,0.20 48.05,0.08 48.06,-0.04 48.06,-0.17 48.11,-0.29 48.16,-0.41 48.24,-0.51 48.33,-0.61 48.44,-0.68 48.55,-0.74 48.68,-0.77 48.81,-0.80 48.93,-0.78 49.06,-0.77 49.18,-0.71 49.30,-0.66 49.39,-0.57 49.49,-0.48 49.55,-0.36 49.61,-0.25 49.63,-0.12 49.65,0.00 49.63,0.13 49.60,0.25 49.60,0.25 49.60,0.25 43.51,18.10 37.42,35.95 31.33,53.80 25.24,71.64 19.15,89.50 13.07,107.35 7.00,125.20 0.92,143.05 0.87,143.16 0.82,143.26 0.74,143.36 0.67,143.45 0.57,143.52 0.48,143.59 0.37,143.63 0.26,143.68 0.14,143.70 0.03,143.71 -0.08,143.70 -0.20,143.69 -0.31,143.65 -0.42,143.62 -0.52,143.55 -0.62,143.49 -0.70,143.40 -0.78,143.32 -0.84,143.21 -0.90,143.11 -0.93,143.00 -0.96,142.88 -0.97,142.77 -0.97,142.65 -0.95,142.53 Z" fill="#c6cbd1" stroke="#c6cbd1" stroke-width="2.11" stroke-dasharray="none" stroke-dashoffset="none" stroke-linecap="round" stroke-linejoin="round" pointer-events="stroke"/></g></g><g id="b82f42b3-9abd-4390-2fcc-f7be424e7b4b_svg" class="tl-centered-g" transform="translate(178.60, 172.44) rotate(0.00, 0.77, 82.47)"><defs><mask id="b82f42b3-9abd-4390-2fcc-f7be424e7b4b_clip"><rect x="-100" y="-100" width="201.53" height="364.93" fill="white"/><rect x="0.76" y="82.46" width="0" height="0" rx="4" ry="4" fill="black" opacity="1"/></mask></defs><g pointer-events="none" opacity="1" mask=""><path d="M 3.36,0.01 Q 3.36,0.01 3.12,20.63 2.88,41.24 2.66,61.86 2.43,82.48 2.21,103.09 1.99,123.71 1.78,144.32 1.57,164.94 1.53,165.19 1.48,165.44 1.36,165.67 1.24,165.89 1.05,166.06 0.87,166.24 0.63,166.34 0.40,166.45 0.15,166.47 -0.10,166.50 -0.34,166.44 -0.59,166.38 -0.81,166.25 -1.03,166.12 -1.19,165.92 -1.35,165.72 -1.45,165.49 -1.54,165.25 -1.55,164.99 -1.56,164.74 -1.49,164.49 -1.42,164.25 -1.27,164.04 -1.13,163.83 -0.92,163.68 -0.72,163.53 -0.48,163.45 -0.24,163.37 0.01,163.37 0.26,163.37 0.51,163.46 0.75,163.54 0.95,163.70 1.15,163.85 1.29,164.06 1.43,164.28 1.50,164.52 1.56,164.77 1.55,165.02 1.53,165.28 1.43,165.51 1.34,165.75 1.17,165.94 1.00,166.14 0.78,166.27 0.56,166.39 0.31,166.45 0.07,166.50 -0.18,166.47 -0.43,166.44 -0.66,166.33 -0.89,166.22 -1.08,166.04 -1.26,165.87 -1.38,165.64 -1.49,165.41 -1.53,165.16 -1.57,164.91 -1.57,164.91 -1.57,164.91 -1.40,144.29 -1.23,123.68 -1.06,103.06 -0.90,82.44 -0.74,61.83 -0.59,41.21 -0.45,20.59 -0.30,-0.01 -0.27,-0.23 -0.25,-0.45 -0.17,-0.66 -0.08,-0.86 0.03,-1.05 0.16,-1.23 0.33,-1.37 0.49,-1.52 0.69,-1.62 0.89,-1.72 1.10,-1.77 1.32,-1.82 1.54,-1.82 1.76,-1.82 1.98,-1.76 2.19,-1.71 2.39,-1.60 2.58,-1.50 2.75,-1.35 2.91,-1.20 3.04,-1.02 3.16,-0.83 3.24,-0.63 3.31,-0.42 3.34,-0.20 Z" fill="#c6cbd1" stroke="#c6cbd1" stroke-width="3.33" stroke-dasharray="none" stroke-dashoffset="none" stroke-linecap="round" stroke-linejoin="round" pointer-events="stroke"/></g></g><g id="2c176f18-61da-4d26-0579-a3fe1d9cfa72_svg" class="tl-centered-g" transform="translate(180.13, 105.31) rotate(0.00, 66.41, 33.97)"><defs><mask id="2c176f18-61da-4d26-0579-a3fe1d9cfa72_clip"><rect x="-100" y="-100" width="332.82" height="267.94" fill="white"/><rect x="66.41" y="33.97" width="0" height="0" rx="4" ry="4" fill="black" opacity="1"/></mask></defs><g pointer-events="none" opacity="1" mask=""><path d="M -0.44,67.06 Q -0.44,67.06 16.16,58.60 32.78,50.13 49.40,41.66 66.01,33.19 82.62,24.71 99.23,16.24 115.84,7.76 132.45,-0.71 132.57,-0.75 132.70,-0.79 132.83,-0.79 132.96,-0.79 133.08,-0.75 133.20,-0.70 133.31,-0.62 133.41,-0.54 133.48,-0.43 133.55,-0.32 133.59,-0.20 133.62,-0.07 133.61,0.05 133.60,0.18 133.55,0.30 133.50,0.42 133.41,0.52 133.33,0.62 133.22,0.68 133.10,0.75 132.97,0.77 132.85,0.80 132.72,0.79 132.59,0.77 132.47,0.71 132.35,0.66 132.26,0.56 132.17,0.47 132.11,0.36 132.05,0.24 132.03,0.11 132.01,-0.01 132.03,-0.14 132.05,-0.26 132.12,-0.38 132.18,-0.49 132.28,-0.58 132.37,-0.67 132.49,-0.72 132.61,-0.78 132.74,-0.79 132.87,-0.80 133.00,-0.77 133.12,-0.74 133.24,-0.67 133.35,-0.60 133.43,-0.50 133.51,-0.40 133.56,-0.28 133.61,-0.16 133.61,-0.03 133.62,0.09 133.58,0.22 133.54,0.34 133.47,0.45 133.39,0.56 133.29,0.64 133.18,0.71 133.18,0.71 133.18,0.71 116.59,9.22 99.99,17.72 83.40,26.23 66.80,34.74 50.21,43.25 33.62,51.77 17.03,60.29 0.44,68.81 0.33,68.85 0.22,68.89 0.10,68.90 -0.01,68.92 -0.12,68.90 -0.24,68.89 -0.35,68.84 -0.46,68.80 -0.56,68.73 -0.65,68.66 -0.73,68.57 -0.81,68.48 -0.86,68.38 -0.92,68.27 -0.94,68.16 -0.97,68.04 -0.97,67.92 -0.97,67.81 -0.94,67.69 -0.91,67.58 -0.85,67.47 -0.80,67.37 -0.72,67.28 -0.64,67.19 -0.54,67.13 Z" fill="#c6cbd1" stroke="#c6cbd1" stroke-width="2.11" stroke-dasharray="none" stroke-dashoffset="none" stroke-linecap="round" stroke-linejoin="round" pointer-events="stroke"/></g></g><g id="21766b8f-77fb-4ab6-060f-e7537bac4a20_svg" class="tl-centered-g" transform="translate(180.13, 103.36) rotate(0.00, 67.45, 116.63)"><defs><mask id="21766b8f-77fb-4ab6-060f-e7537bac4a20_clip"><rect x="-100" y="-100" width="334.9" height="433.25" fill="white"/><rect x="67.45" y="116.62" width="0" height="0" rx="4" ry="4" fill="black" opacity="1"/></mask></defs><g pointer-events="none" opacity="1" mask=""><path d="M 136.41,0.87 Q 136.41,0.87 119.50,30.00 102.59,59.13 85.69,88.26 68.79,117.40 51.90,146.54 35.01,175.68 18.13,204.83 1.25,233.97 1.10,234.15 0.95,234.33 0.75,234.46 0.55,234.58 0.33,234.64 0.10,234.69 -0.13,234.67 -0.36,234.65 -0.57,234.55 -0.79,234.46 -0.96,234.30 -1.13,234.14 -1.25,233.94 -1.36,233.73 -1.40,233.50 -1.44,233.27 -1.41,233.04 -1.38,232.81 -1.27,232.60 -1.16,232.39 -1.00,232.22 -0.83,232.06 -0.62,231.96 -0.41,231.86 -0.17,231.83 0.05,231.80 0.28,231.84 0.51,231.89 0.71,232.01 0.91,232.12 1.07,232.30 1.22,232.48 1.31,232.69 1.40,232.91 1.42,233.14 1.44,233.38 1.38,233.60 1.32,233.83 1.19,234.03 1.06,234.22 0.88,234.37 0.70,234.51 0.47,234.59 0.25,234.67 0.02,234.67 -0.21,234.68 -0.43,234.61 -0.65,234.54 -0.84,234.40 -1.03,234.26 -1.16,234.07 -1.30,233.88 -1.37,233.65 -1.43,233.43 -1.42,233.19 -1.42,232.96 -1.33,232.74 -1.25,232.52 -1.25,232.52 -1.25,232.52 15.58,203.35 32.43,174.18 49.26,145.01 66.10,115.84 82.93,86.67 99.75,57.49 116.57,28.30 133.38,-0.87 133.51,-1.04 133.64,-1.21 133.80,-1.34 133.96,-1.47 134.15,-1.56 134.34,-1.65 134.55,-1.69 134.76,-1.74 134.97,-1.73 135.18,-1.72 135.38,-1.66 135.58,-1.60 135.76,-1.50 135.95,-1.39 136.10,-1.24 136.25,-1.10 136.36,-0.92 136.47,-0.74 136.54,-0.54 136.61,-0.34 136.62,-0.13 136.64,0.07 136.61,0.27 136.57,0.48 136.49,0.68 Z" fill="#c6cbd1" stroke="#c6cbd1" stroke-width="3.33" stroke-dasharray="none" stroke-dashoffset="none" stroke-linecap="round" stroke-linejoin="round" pointer-events="stroke"/></g></g><g id="f438622e-5961-41ef-1126-ecc181923c92_svg" class="tl-centered-g" transform="translate(177.84, 258.75) rotate(0.00, 66.79, 40.45)"><defs><mask id="f438622e-5961-41ef-1126-ecc181923c92_clip"><rect x="-100" y="-100" width="333.58" height="280.90" fill="white"/><rect x="66.79" y="40.45" width="0" height="0" rx="4" ry="4" fill="black" opacity="1"/></mask></defs><g pointer-events="none" opacity="1" mask=""><path d="M -0.44,80.17 Q -0.44,80.17 16.27,70.09 32.99,60.01 49.70,49.92 66.41,39.84 83.12,29.74 99.83,19.65 116.54,9.55 133.24,-0.54 133.34,-0.58 133.44,-0.62 133.54,-0.62 133.64,-0.63 133.74,-0.60 133.84,-0.57 133.93,-0.52 134.01,-0.46 134.08,-0.38 134.14,-0.30 134.17,-0.20 134.20,-0.10 134.20,-0.00 134.20,0.10 134.17,0.19 134.14,0.29 134.08,0.37 134.02,0.46 133.93,0.52 133.84,0.57 133.75,0.60 133.65,0.63 133.54,0.62 133.44,0.62 133.34,0.58 133.25,0.54 133.17,0.48 133.09,0.41 133.04,0.32 132.98,0.23 132.96,0.13 132.94,0.03 132.95,-0.06 132.96,-0.16 133.00,-0.26 133.05,-0.35 133.12,-0.43 133.19,-0.50 133.28,-0.55 133.37,-0.60 133.47,-0.62 133.57,-0.63 133.68,-0.62 133.78,-0.60 133.87,-0.55 133.96,-0.50 134.03,-0.43 134.10,-0.35 134.15,-0.26 134.19,-0.17 134.20,-0.06 134.21,0.03 134.19,0.13 134.17,0.23 134.12,0.32 134.06,0.41 133.98,0.47 133.91,0.54 133.91,0.54 133.91,0.54 117.22,10.67 100.53,20.80 83.84,30.93 67.16,41.06 50.47,51.20 33.79,61.34 17.12,71.49 0.44,81.64 0.35,81.68 0.25,81.73 0.15,81.75 0.05,81.76 -0.05,81.76 -0.15,81.75 -0.25,81.72 -0.35,81.69 -0.44,81.64 -0.53,81.58 -0.60,81.51 -0.67,81.44 -0.73,81.35 -0.78,81.26 -0.81,81.16 -0.84,81.06 -0.85,80.96 -0.85,80.85 -0.84,80.75 -0.82,80.65 -0.77,80.55 -0.73,80.46 -0.67,80.38 -0.60,80.30 -0.52,80.23 Z" fill="#c6cbd1" stroke="#c6cbd1" stroke-width="2.11" stroke-dasharray="none" stroke-dashoffset="none" stroke-linecap="round" stroke-linejoin="round" pointer-events="stroke"/></g></g><g id="a891051b-2fd4-413d-133d-4fff9b6c3fe0_svg" class="tl-centered-g" transform="translate(16.00, 16.00) rotate(0.00, 159.01, 162.63)"><path d="M 300.56,89.67 Q 300.56,89.67 302.91,92.30 305.25,94.93 306.93,97.79 308.61,100.65 310.60,104.57 312.59,108.50 314.65,113.59 316.71,118.68 317.67,121.68 318.63,124.68 319.48,127.99 320.33,131.30 321.04,134.91 321.74,138.52 322.25,142.43 322.76,146.33 323.02,150.52 323.29,154.70 323.28,159.14 323.27,163.58 322.98,168.25 322.68,172.91 322.10,177.79 321.51,182.66 320.59,187.71 319.67,192.75 318.39,197.95 317.11,203.14 315.43,208.44 313.76,213.74 311.66,219.10 309.56,224.47 307.00,229.85 304.45,235.23 301.43,240.58 298.40,245.94 294.92,251.22 291.44,256.50 287.46,261.65 283.49,266.80 279.02,271.76 274.55,276.71 269.57,281.41 264.59,286.10 259.11,290.46 253.63,294.82 247.66,298.77 241.69,302.73 235.27,306.21 228.85,309.69 222.00,312.62 215.15,315.55 207.93,317.88 200.71,320.20 193.18,321.85 185.65,323.50 177.86,324.42 170.08,325.35 162.13,325.50 154.17,325.65 146.13,325.00 138.09,324.34 130.05,322.85 122.01,321.36 114.07,319.02 106.13,316.69 98.39,313.50 90.65,310.31 83.21,306.29 75.77,302.27 68.73,297.43 61.68,292.60 55.14,287.00 48.59,281.39 42.63,275.08 36.67,268.76 31.39,261.79 26.11,254.83 21.58,247.29 17.04,239.76 13.33,231.74 9.62,223.72 6.78,215.32 3.95,206.93 2.02,198.25 0.10,189.58 -0.86,180.73 -1.84,171.89 -1.86,163.00 -1.88,154.11 -0.95,145.27 -0.01,136.44 1.85,127.78 3.73,119.13 6.51,110.75 9.29,102.37 12.93,94.39 16.58,86.40 21.02,78.89 25.47,71.38 30.66,64.44 35.84,57.50 41.68,51.20 47.52,44.89 53.93,39.30 60.35,33.70 67.24,28.86 74.13,24.01 81.41,19.96 88.68,15.90 96.25,12.66 103.81,9.42 111.56,7.00 119.31,4.58 127.16,2.97 135.00,1.37 142.85,0.57 150.69,-0.22 158.46,-0.25 166.22,-0.28 173.82,0.42 181.42,1.13 188.78,2.54 196.14,3.94 203.21,5.98 210.27,8.02 216.98,10.64 223.69,13.27 230.00,16.41 236.32,19.55 242.19,23.14 248.07,26.73 253.49,30.70 258.91,34.68 263.85,38.97 268.79,43.26 273.25,47.81 277.71,52.35 281.68,57.08 285.66,61.81 289.16,66.66 292.67,71.50 295.74,76.40 298.81,81.31 301.46,86.22 304.10,91.13 306.34,96.02 308.57,100.90 310.42,105.71 312.27,110.53 313.75,115.24 315.23,119.94 316.37,124.51 317.51,129.08 318.34,133.48 319.17,137.88 319.71,142.08 320.25,146.28 320.54,150.26 320.83,154.24 320.90,157.98 320.97,161.72 320.85,165.21 320.73,168.69 320.45,171.91 320.18,175.13 319.30,180.72 318.42,186.32 317.31,190.78 316.20,195.24 315.10,198.57 314.01,201.91 312.58,205.37 311.15,208.84 311.15,208.84 311.14,208.83 311.14,208.83 311.13,208.83 311.65,205.15 312.16,201.47 312.59,198.05 313.01,194.63 313.45,190.18 313.89,185.73 314.23,180.27 314.57,174.81 314.66,171.70 314.74,168.60 314.73,165.25 314.72,161.90 314.58,158.30 314.45,154.71 314.16,150.89 313.87,147.07 313.39,143.03 312.90,138.99 312.19,134.75 311.48,130.50 310.50,126.08 309.52,121.65 308.22,117.06 306.93,112.48 305.29,107.77 303.65,103.07 301.63,98.28 299.60,93.49 297.15,88.66 294.70,83.84 291.80,79.03 288.90,74.22 285.52,69.49 282.14,64.76 278.29,60.16 274.44,55.56 270.11,51.14 265.79,46.72 260.99,42.55 256.20,38.37 250.94,34.50 245.68,30.64 239.98,27.14 234.27,23.65 228.15,20.59 222.02,17.53 215.51,14.98 208.99,12.42 202.14,10.43 195.28,8.44 188.13,7.07 180.99,5.70 173.61,5.00 166.23,4.30 158.69,4.31 151.15,4.33 143.53,5.09 135.91,5.86 128.29,7.41 120.67,8.95 113.14,11.29 105.61,13.63 98.26,16.77 90.91,19.91 83.84,23.84 76.76,27.77 70.06,32.46 63.36,37.16 57.12,42.59 50.88,48.02 45.19,54.13 39.51,60.24 34.46,66.98 29.41,73.72 25.08,81.01 20.74,88.30 17.19,96.06 13.64,103.83 10.92,111.96 8.21,120.10 6.37,128.52 4.54,136.93 3.61,145.52 2.69,154.10 2.70,162.75 2.71,171.40 3.64,179.99 4.58,188.59 6.43,197.03 8.29,205.46 11.04,213.63 13.78,221.80 17.38,229.60 20.98,237.40 25.37,244.73 29.76,252.06 34.89,258.84 40.01,265.62 45.80,271.77 51.58,277.91 57.93,283.37 64.28,288.82 71.12,293.52 77.96,298.23 85.18,302.15 92.41,306.07 99.92,309.17 107.44,312.28 115.15,314.56 122.86,316.84 130.66,318.30 138.47,319.75 146.28,320.40 154.09,321.04 161.81,320.90 169.54,320.75 177.09,319.86 184.65,318.96 191.97,317.36 199.29,315.75 206.29,313.49 213.30,311.23 219.94,308.38 226.58,305.52 232.81,302.12 239.03,298.73 244.80,294.87 250.57,291.00 255.86,286.74 261.14,282.48 265.91,277.88 270.69,273.28 274.94,268.42 279.20,263.56 282.92,258.50 286.64,253.44 289.83,248.25 293.03,243.06 295.69,237.79 298.35,232.52 300.53,227.25 302.71,221.99 304.44,216.77 306.17,211.56 307.48,206.44 308.79,201.33 309.72,196.35 310.65,191.38 311.23,186.57 311.81,181.77 312.09,177.16 312.38,172.56 312.39,168.18 312.41,163.79 312.23,159.65 312.05,155.50 311.74,151.60 311.43,147.69 311.03,144.03 310.63,140.37 310.16,136.95 309.69,133.54 308.65,127.43 307.61,121.32 306.53,116.20 305.45,111.07 304.43,106.94 303.41,102.82 302.54,99.72 301.68,96.63 301.11,93.15 Z" fill="#c6cbd1" stroke="#c6cbd1" stroke-width="5" pointer-events="none" stroke-linecap="round" stroke-linejoin="round"/></g></svg>